<?xml version="1.0" encoding="utf-8"?>
<!DOCTYPE svg PUBLIC "-//W3C//DTD SVG 20010904//EN" "http://www.w3.org/TR/2001/REC-SVG-20010904/DTD/svg10.dtd">
<svg version="1.0" xmlns="http://www.w3.org/2000/svg" width="34pt" height="34pt" viewBox="0 0 34 34" style="" preserveAspectRatio="xMidYMid meet">
<g fill="#ACAFB0FF" stroke="#ACAFB0FF">
<path d="M 9.408 6.380 C 9.068 7.265 8.318 7.697 7.741 7.340 C 7.128 6.961 6.988 7.171 7.405 7.845 C 8.476 9.579 9.996 9.234 10.030 7.250 C 10.058 5.654 10.156 5.664 11.147 7.370 C 11.890 8.648 12.459 8.875 12.945 8.089 C 13.420 7.320 14.448 7.230 16.038 7.818 C 18.253 8.638 18.148 8.750 14.528 9.429 C 11.813 9.938 11.052 10.414 12.010 11.006 C 12.836 11.517 14.477 11.288 16.135 10.430 C 17.999 9.466 19.632 9.290 21.194 9.884 C 22.462 10.366 23.829 10.702 24.231 10.630 C 24.633 10.559 25.705 11.561 26.614 12.859 C 27.997 14.834 28.041 15.360 26.883 16.094 C 25.801 16.779 25.785 16.973 26.809 16.985 C 27.529 16.993 27.840 17.450 27.500 18.000 C 27.160 18.550 27.584 19.000 28.441 19.000 C 29.298 19.000 30.071 19.338 30.158 19.750 C 30.244 20.163 30.294 20.050 30.269 19.500 C 30.243 18.950 29.916 17.757 29.542 16.850 C 29.048 15.651 29.360 15.240 30.681 15.350 C 31.947 15.454 31.816 15.252 30.251 14.683 C 28.431 14.022 28.192 13.510 28.997 12.005 C 30.093 9.958 29.368 7.000 27.771 7.000 C 27.208 7.000 27.353 7.780 28.097 8.750 C 28.919 9.822 28.482 9.662 26.970 8.339 C 25.233 6.820 23.164 6.174 20.000 6.161 C 17.525 6.151 14.268 5.835 12.762 5.458 C 10.730 4.948 9.866 5.186 9.408 6.380 "/></g>
<g fill="#5E6C7FFF" stroke="#5E6C7FFF">
<path d="M 15.810 10.524 C 15.522 10.811 15.505 12.189 15.771 13.584 C 16.396 16.850 20.472 19.683 22.329 18.142 C 23.289 17.345 23.967 17.367 24.824 18.224 C 26.580 19.980 26.355 16.588 24.474 12.950 C 23.251 10.585 22.292 10.000 19.641 10.000 C 17.822 10.000 16.098 10.236 15.810 10.524 "/></g>
<g fill="#ACAFB0FF" stroke="#ACAFB0FF">
<path d="M 4.415 14.535 C 4.462 16.990 4.879 19.000 5.342 19.000 C 6.110 19.000 10.944 22.441 11.221 23.184 C 11.673 24.400 8.583 28.000 7.087 28.000 C 6.074 28.000 4.627 28.788 3.872 29.750 C 2.636 31.326 2.669 31.367 4.206 30.164 C 5.145 29.429 6.359 29.104 6.906 29.442 C 7.987 30.110 12.249 24.913 12.604 22.494 C 12.801 21.151 11.794 20.570 9.786 20.870 C 9.393 20.928 9.329 20.306 9.643 19.488 C 10.003 18.551 9.619 18.000 8.607 18.000 C 7.723 18.000 7.000 17.605 7.000 17.122 C 7.000 15.632 9.393 14.264 11.652 14.462 C 13.040 14.584 13.629 14.196 13.311 13.369 C 12.983 12.513 11.801 12.290 9.759 12.698 C 7.566 13.137 6.365 12.852 5.515 11.690 C 4.540 10.356 4.345 10.860 4.415 14.535 M 7.355 15.312 C 6.374 16.293 5.000 16.163 5.000 15.088 C 5.000 14.587 5.685 14.277 6.522 14.400 C 7.358 14.523 7.733 14.933 7.355 15.312 "/></g>
<g fill="#ACAFB0FF" stroke="#ACAFB0FF">
<path d="M 14.000 24.969 C 14.000 25.414 15.613 26.080 17.584 26.450 C 20.139 26.929 21.009 27.535 20.615 28.561 C 20.311 29.352 20.499 30.000 21.031 30.000 C 21.564 30.000 22.007 29.438 22.015 28.750 C 22.026 27.917 22.354 28.000 23.000 29.000 C 24.398 31.164 24.222 29.650 22.750 26.856 C 21.805 25.063 20.584 24.444 17.750 24.322 C 15.688 24.233 14.000 24.524 14.000 24.969 "/></g>
<g fill="#ACAFB0FF" stroke="#ACAFB0FF">
<path d="M 13.000 19.000 C 13.000 19.550 13.418 20.000 13.929 20.000 C 14.439 20.000 15.592 20.735 16.490 21.633 C 17.804 22.947 18.598 23.049 20.561 22.154 C 21.903 21.543 23.000 20.579 23.000 20.013 C 23.000 19.362 22.301 19.420 21.098 20.171 C 19.570 21.125 18.693 21.029 16.633 19.679 C 13.673 17.739 13.000 17.614 13.000 19.000 "/></g>
<g fill="#5E6C7FFF" stroke="#5E6C7FFF">
<path d="M 11.500 26.000 C 9.371 28.180 7.890 30.224 8.209 30.542 C 8.527 30.861 9.940 29.969 11.348 28.561 C 12.757 27.152 13.592 25.986 13.205 25.968 C 12.817 25.951 13.367 25.280 14.427 24.479 C 15.487 23.677 16.133 22.799 15.862 22.529 C 15.591 22.258 13.629 23.820 11.500 26.000 "/></g>
<g fill="#ACAFB0FF" stroke="#ACAFB0FF">
<path d="M 25.365 22.584 C 25.519 25.303 25.820 25.780 26.780 24.820 C 27.451 24.149 27.993 23.128 27.985 22.550 C 27.976 21.973 27.533 22.175 27.000 23.000 C 26.322 24.049 26.026 24.115 26.015 23.219 C 26.007 22.514 26.747 21.650 27.660 21.300 C 29.099 20.748 29.043 20.560 27.246 19.895 C 25.379 19.205 25.190 19.475 25.365 22.584 "/></g>
<g fill="#485263FF" stroke="#485263FF">
<path d="M 17.232 12.195 C 17.451 12.853 18.806 13.705 20.243 14.090 C 22.245 14.625 22.731 14.464 22.323 13.400 C 22.030 12.636 21.388 12.260 20.895 12.565 C 20.403 12.869 20.000 12.641 20.000 12.059 C 20.000 11.477 19.288 11.000 18.417 11.000 C 17.546 11.000 17.013 11.538 17.232 12.195 "/></g>
<g fill="#93989FFF" stroke="#93989FFF">
<path d="M 24.975 21.658 C 26.808 22.567 26.055 23.827 24.000 23.290 C 22.566 22.915 22.000 23.259 22.000 24.506 C 22.000 25.784 22.331 25.970 23.250 25.207 C 23.938 24.637 24.950 24.132 25.500 24.085 C 26.957 23.961 26.726 21.712 25.225 21.408 C 24.524 21.266 24.411 21.379 24.975 21.658 "/></g>
<g fill="#5E6C7FFF" stroke="#5E6C7FFF">
<path d="M 11.669 15.609 C 10.923 17.811 11.681 21.000 12.950 21.000 C 13.354 21.000 13.392 19.313 13.034 17.250 C 12.488 14.105 12.268 13.840 11.669 15.609 "/></g>
<g fill="#ACAFB0FF" stroke="#ACAFB0FF">
<path d="M 16.628 30.793 C 16.359 31.228 17.570 31.681 19.319 31.797 C 21.718 31.958 22.131 31.766 21.000 31.020 C 19.179 29.819 17.291 29.721 16.628 30.793 "/></g>
<g fill="#ACAFB0FF" stroke="#ACAFB0FF">
<path d="M 10.000 30.620 L 7.500 32.045 10.500 31.605 C 12.150 31.363 13.050 31.121 12.500 31.067 C 11.950 31.013 12.175 30.533 13.000 30.000 C 15.322 28.499 12.812 29.018 10.000 30.620 "/></g>
<g fill="#93989FFF" stroke="#93989FFF">
<path d="M 26.057 14.268 C 27.972 16.052 28.109 16.063 27.817 14.418 C 27.643 13.436 26.708 12.565 25.740 12.483 C 24.191 12.351 24.229 12.564 26.057 14.268 "/></g>
<g fill="#ACAFB0FF" stroke="#ACAFB0FF">
<path d="M 17.388 18.163 C 17.698 19.748 20.000 20.508 20.000 19.024 C 20.000 18.396 19.588 18.136 19.085 18.447 C 18.582 18.758 17.941 18.548 17.660 17.981 C 17.380 17.414 17.257 17.496 17.388 18.163 "/></g>
<g fill="#93989FFF" stroke="#93989FFF">
<path d="M 24.000 29.718 C 22.283 30.578 22.028 30.975 23.185 30.985 C 24.111 30.993 25.236 30.430 25.685 29.732 C 26.342 28.711 26.014 28.708 24.000 29.718 "/></g>
<g fill="#93989FFF" stroke="#93989FFF">
<path d="M 26.000 18.500 C 26.000 19.325 26.375 20.000 26.833 20.000 C 27.292 20.000 27.667 19.325 27.667 18.500 C 27.667 17.675 27.292 17.000 26.833 17.000 C 26.375 17.000 26.000 17.675 26.000 18.500 "/></g>
<g fill="#93989FFF" stroke="#93989FFF">
<path d="M 21.557 18.582 C 20.491 19.362 20.041 19.993 20.559 19.985 C 21.941 19.962 24.520 18.186 23.969 17.636 C 23.710 17.376 22.624 17.802 21.557 18.582 "/></g>
<g fill="#ACAFB0FF" stroke="#ACAFB0FF">
<path d="M 28.500 29.089 C 26.810 29.740 26.771 29.870 28.250 29.930 C 29.213 29.968 30.113 29.622 30.250 29.159 C 30.388 28.697 29.600 28.665 28.500 29.089 "/></g>
<g fill="#93989FFF" stroke="#93989FFF">
<path d="M 12.424 24.037 C 11.610 25.818 11.666 25.874 12.893 24.505 C 13.658 23.651 14.074 22.741 13.817 22.483 C 13.559 22.226 12.932 22.925 12.424 24.037 "/></g>
<g fill="#485263FF" stroke="#485263FF">
<path d="M 24.000 19.000 C 23.835 19.550 23.700 20.450 23.700 21.000 C 23.700 21.667 23.800 21.667 24.000 21.000 C 24.165 20.450 24.300 19.550 24.300 19.000 C 24.300 18.333 24.200 18.333 24.000 19.000 "/></g>
<g fill="#ACAFB0FF" stroke="#ACAFB0FF">
<path d="M 7.000 25.200 C 7.000 26.133 7.267 26.133 8.200 25.200 C 9.133 24.267 9.133 24.000 8.200 24.000 C 7.540 24.000 7.000 24.540 7.000 25.200 "/></g>
<g fill="#ACAFB0FF" stroke="#ACAFB0FF">
<path d="M 6.564 11.104 C 6.880 11.615 7.635 11.726 8.242 11.350 C 8.934 10.923 8.719 10.576 7.668 10.422 C 6.745 10.286 6.249 10.593 6.564 11.104 "/></g>
<g fill="#93989FFF" stroke="#93989FFF">
<path d="M 10.000 12.047 C 9.010 12.656 8.925 12.975 9.750 12.985 C 10.438 12.993 11.113 12.578 11.250 12.062 C 11.404 11.485 10.924 11.479 10.000 12.047 "/></g>
</svg>
